<?xml version="1.0" standalone="no"?>
<!DOCTYPE svg PUBLIC "-//W3C//DTD SVG 20010904//EN"
 "http://www.w3.org/TR/2001/REC-SVG-20010904/DTD/svg10.dtd">
<svg version="1.0" xmlns="http://www.w3.org/2000/svg"
 width="512.000000pt" height="512.000000pt" viewBox="0 0 512.000000 512.000000"
 preserveAspectRatio="xMidYMid meet">
<metadata>
Created by potrace 1.14, written by Peter Selinger 2001-2017
</metadata>
<g transform="translate(0.000000,512.000000) scale(0.100000,-0.100000)"
fill="#000000" stroke="none">
<path d="M2500 4931 c-134 -44 -209 -151 -197 -281 18 -201 237 -305 409 -194
l37 23 78 -55 c119 -85 159 -119 271 -228 417 -405 628 -918 646 -1571 18
-637 -175 -1193 -561 -1618 -44 -49 -53 -64 -53 -96 0 -67 69 -106 126 -72 17
10 68 63 113 117 283 339 462 757 527 1229 19 139 26 496 13 630 -33 337 -111
619 -246 890 -119 240 -268 441 -469 635 -103 99 -291 249 -341 273 -18 8 -23
18 -23 51 0 143 -109 263 -247 272 -32 2 -69 0 -83 -5z"/>
<path d="M1890 4283 c-45 -17 -186 -185 -294 -349 -271 -415 -399 -906 -383
-1469 11 -400 88 -727 247 -1050 171 -347 422 -641 745 -870 95 -67 95 -67 95
-110 0 -93 50 -177 132 -224 67 -39 132 -47 200 -27 198 57 262 293 118 437
-26 26 -60 51 -74 55 l-26 6 0 157 0 156 37 25 c107 72 315 299 407 442 374
588 396 1474 51 2089 -83 147 -163 250 -304 389 -136 135 -236 210 -281 210
-19 0 -56 -21 -117 -68 -457 -355 -703 -885 -703 -1522 0 -496 141 -922 421
-1265 64 -80 206 -218 274 -266 l45 -32 0 -153 0 -153 -32 -17 c-18 -9 -40
-23 -49 -30 -14 -13 -26 -8 -95 42 -242 172 -440 381 -586 617 -67 107 -167
318 -207 433 -89 263 -124 493 -125 814 0 276 16 414 74 644 87 346 229 616
478 903 46 54 62 81 62 102 0 53 -64 101 -110 84z m590 -899 l0 -496 -27 6
c-108 25 -242 137 -289 241 -76 165 -51 323 79 498 60 82 213 247 228 247 5 0
9 -223 9 -496z m275 404 c89 -96 182 -221 211 -283 57 -123 53 -252 -11 -382
-53 -108 -166 -201 -277 -227 l-28 -6 0 495 c0 571 -11 528 105 403z m-673
-846 c23 -29 64 -71 92 -93 82 -66 220 -129 284 -129 l22 0 0 -271 0 -271 -57
6 c-148 18 -333 79 -450 149 l-52 31 -7 65 c-8 77 1 317 16 411 6 36 20 112
32 169 l21 103 29 -58 c16 -33 48 -83 70 -112z m1112 -87 c22 -152 29 -277 21
-391 l-7 -103 -96 -49 c-54 -28 -133 -62 -177 -76 -73 -25 -223 -56 -266 -56
-18 0 -19 13 -19 268 l0 268 59 12 c159 33 318 157 402 315 l33 62 18 -75 c10
-41 24 -120 32 -175z m-1081 -774 c100 -35 265 -71 326 -71 l41 0 0 -397 0
-396 -22 18 c-51 42 -154 155 -213 234 -120 159 -219 367 -269 566 -14 55 -26
103 -26 108 0 4 17 -1 38 -12 20 -10 77 -33 125 -50z m1042 -41 c-50 -197
-136 -385 -250 -545 -63 -89 -230 -275 -247 -275 -4 0 -8 178 -8 395 l0 395
41 0 c94 0 347 68 449 120 19 10 36 17 38 15 2 -1 -9 -49 -23 -105z"/>
</g>
</svg>
